<?xml version="1.0" standalone="no"?>
<!DOCTYPE svg PUBLIC "-//W3C//DTD SVG 20010904//EN"
 "http://www.w3.org/TR/2001/REC-SVG-20010904/DTD/svg10.dtd">
<svg version="1.0" xmlns="http://www.w3.org/2000/svg"
 width="178.000000pt" height="167.000000pt" viewBox="0 0 178.000000 167.000000"
 preserveAspectRatio="xMidYMid meet">
<metadata>
Created by potrace 1.16, written by Peter Selinger 2001-2019
</metadata>
<g transform="translate(0.000000,167.000000) scale(0.100000,-0.100000)"
fill="#000000" stroke="none">
<path d="M617 1610 c-124 -37 -228 -102 -335 -209 -181 -180 -232 -330 -198
-571 22 -149 40 -216 87 -318 119 -259 348 -444 581 -470 286 -32 575 126 774
424 97 145 144 293 144 451 0 102 -17 179 -60 263 -79 157 -313 328 -563 412
-81 27 -109 31 -227 34 -113 3 -146 1 -203 -16z m607 -431 c6 -5 4 -19 -4 -35
-11 -20 -20 -24 -40 -21 -40 8 -86 -17 -99 -53 -7 -20 -11 -107 -11 -221 l0
-189 -35 0 -35 0 0 259 c0 213 2 260 14 264 18 7 56 -3 56 -15 0 -5 10 -3 22
3 51 27 107 31 132 8z m-727 -9 c42 -25 63 -59 70 -110 l6 -41 -39 3 c-33 3
-39 7 -46 35 -10 38 -42 63 -81 63 -74 0 -107 -60 -107 -195 0 -135 33 -195
107 -195 39 0 69 24 83 65 10 31 15 35 47 35 l36 0 -6 -40 c-11 -83 -67 -130
-157 -130 -79 0 -118 24 -155 95 -28 55 -30 66 -30 170 0 104 2 115 30 170 21
40 41 64 65 76 47 26 135 25 177 -1z m374 -3 c63 -42 69 -67 69 -299 l0 -208
-35 0 -35 0 0 194 c0 107 -4 206 -10 221 -6 16 -24 32 -47 41 -33 14 -40 14
-70 0 -18 -9 -38 -27 -43 -42 -6 -14 -10 -113 -10 -220 l0 -195 -32 3 -33 3
-3 258 -2 257 35 0 c26 0 35 -4 35 -17 0 -14 2 -15 18 -1 40 35 114 38 163 5z
m584 8 c43 -17 53 -40 30 -65 -17 -19 -19 -19 -38 -3 -30 28 -104 24 -128 -6
-42 -52 -18 -95 80 -140 81 -37 116 -73 125 -130 17 -108 -84 -190 -208 -167
-39 7 -96 50 -96 72 0 7 9 18 20 24 16 9 26 6 50 -12 38 -27 96 -30 133 -5 21
14 27 25 27 55 0 52 -12 64 -105 111 -109 55 -136 107 -104 200 23 66 133 101
214 66z"/>
</g>
</svg>
