<?xml version="1.0" standalone="no"?>
<!DOCTYPE svg PUBLIC "-//W3C//DTD SVG 20010904//EN"
 "http://www.w3.org/TR/2001/REC-SVG-20010904/DTD/svg10.dtd">
<svg version="1.0" xmlns="http://www.w3.org/2000/svg"
 width="1199.000000pt" height="989.000000pt" viewBox="0 0 1199.000000 989.000000"
 preserveAspectRatio="xMidYMid meet">
<metadata>
Created by potrace 1.16, written by Peter Selinger 2001-2019
</metadata>
<g transform="translate(0.000000,989.000000) scale(0.100000,-0.100000)"
fill="#000000" stroke="none">
<path d="M5769 9880 c-980 -64 -1880 -470 -2564 -1155 -910 -912 -1314 -2178
-1104 -3460 152 -929 673 -1815 1417 -2413 906 -727 2046 -1019 3191 -816
1240 219 2315 1041 2867 2189 192 401 307 804 366 1285 20 166 17 710 -5 885
-98 759 -370 1406 -848 2014 -112 142 -455 485 -605 604 -133 106 -352 256
-488 336 -471 276 -1028 458 -1579 515 -182 19 -487 27 -648 16z m452 -600
l132 -5 -105 -79 -105 -80 38 -120 c21 -66 37 -121 35 -123 -1 -2 -47 30 -101
71 l-99 74 -41 -28 c-22 -16 -67 -48 -100 -73 -33 -25 -61 -44 -63 -42 -2 2
12 55 32 118 20 63 36 117 36 121 0 3 -46 40 -102 83 l-103 78 131 3 131 3 28
92 c48 159 42 158 86 27 l38 -115 132 -5z m-1767 -325 l34 -110 131 -5 132 -5
-104 -78 -105 -77 32 -103 c18 -56 36 -113 41 -127 l8 -24 -34 25 c-19 14 -66
50 -106 78 l-72 53 -78 -59 c-43 -33 -90 -68 -105 -77 l-27 -18 39 118 c22 65
40 123 40 129 0 5 -47 44 -103 85 l-102 75 129 5 129 5 40 120 c22 66 42 116
43 110 2 -5 19 -59 38 -120z m3366 -123 l132 -3 -105 -79 -106 -79 25 -79 c13
-44 31 -98 39 -122 8 -24 14 -44 13 -46 -2 -1 -39 25 -83 58 -136 102 -111
100 -217 21 -51 -38 -98 -72 -104 -76 -6 -3 7 50 29 119 21 69 38 126 36 128
-2 2 -49 36 -103 77 l-100 74 129 5 129 5 32 100 c18 55 35 109 39 120 4 14
18 -17 44 -100 l38 -120 133 -3z m-1320 -767 c380 -66 759 -243 1075 -500 50
-40 105 -89 123 -107 l32 -34 -61 -145 c-33 -79 -65 -154 -70 -167 -8 -22 -14
-19 -111 69 -296 266 -615 433 -978 510 -140 31 -450 34 -575 6 -207 -45 -397
-127 -567 -247 -118 -82 -303 -267 -390 -390 -83 -117 -198 -341 -243 -475
l-33 -100 1314 -3 c723 -1 1314 -4 1314 -6 0 -2 -33 -82 -73 -177 l-74 -174
-1270 -3 -1271 -2 -6 -23 c-8 -29 -8 -275 0 -304 l6 -23 1194 0 c657 0 1194
-2 1194 -5 0 -3 -34 -87 -76 -185 l-76 -180 -1084 0 c-940 0 -1084 -2 -1084
-15 0 -7 15 -56 34 -107 103 -283 239 -493 448 -694 465 -447 1094 -539 1728
-255 205 93 420 237 585 393 l85 80 0 -235 0 -236 -100 -75 c-325 -245 -709
-402 -1095 -447 -138 -16 -392 -6 -519 21 -293 62 -570 196 -796 385 -227 190
-407 423 -546 709 -59 121 -143 353 -159 439 l-7 37 -324 0 c-178 0 -324 3
-324 8 0 4 33 86 74 182 l73 175 219 3 219 2 0 175 0 175 -292 0 c-161 0 -293
1 -293 3 0 1 33 81 73 177 l74 175 247 5 248 5 33 115 c106 369 292 689 549
946 311 311 669 485 1106 538 73 9 359 -3 450 -19z m-3070 -365 l134 -5 -100
-74 c-54 -41 -102 -77 -106 -80 -5 -4 10 -60 32 -126 22 -65 38 -120 37 -122
-2 -1 -49 31 -104 71 l-101 75 -99 -74 c-54 -41 -101 -75 -105 -75 -4 0 11 53
33 117 21 64 39 120 39 124 0 4 -45 40 -100 80 -54 41 -99 77 -100 82 0 4 57
7 128 7 l127 0 27 88 c51 165 46 164 88 32 l36 -115 134 -5z m5405 100 l38
-119 129 -3 129 -3 -100 -75 c-55 -41 -100 -79 -100 -85 -1 -5 15 -59 34 -119
19 -61 32 -112 30 -114 -2 -3 -47 27 -100 67 -57 43 -100 69 -108 65 -7 -4
-54 -38 -104 -76 -51 -37 -93 -64 -93 -60 0 4 18 60 39 125 l39 116 -104 78
-105 78 129 3 129 3 38 119 c21 66 39 120 40 120 1 0 19 -54 40 -120z m-5875
-1778 l132 -3 -105 -79 -105 -79 32 -103 c18 -57 36 -113 40 -126 6 -19 -11
-10 -86 45 -51 38 -99 73 -106 77 -11 7 -65 -28 -190 -122 -18 -14 -30 -19
-28 -11 26 73 77 241 74 243 -2 2 -48 36 -102 77 l-100 74 129 5 129 5 31 101
c17 55 35 109 39 120 6 14 18 -12 46 -101 l38 -120 132 -3z m6340 95 l36 -112
127 -5 128 -5 -100 -75 c-56 -41 -101 -76 -101 -78 0 -2 16 -55 36 -118 20
-64 35 -117 33 -119 -2 -2 -47 28 -99 66 -52 38 -98 69 -102 69 -5 0 -51 -32
-104 -71 -53 -39 -98 -69 -100 -67 -2 3 14 58 36 123 22 65 39 119 37 120 -1
1 -47 35 -101 76 l-99 74 124 3 125 3 39 119 c21 66 41 117 44 114 3 -3 22
-56 41 -117z m-6002 -1558 l37 -114 128 -5 128 -5 -101 -75 c-116 -86 -111
-64 -54 -232 l33 -100 -32 24 c-80 61 -175 128 -181 128 -4 0 -49 -32 -102
-71 -52 -40 -97 -70 -99 -67 -3 2 13 57 34 120 l39 116 -21 20 c-12 10 -60 47
-107 81 l-84 61 130 0 130 0 39 120 c21 66 41 118 43 116 2 -2 20 -55 40 -117z
m5652 -129 l132 -5 -105 -79 -105 -79 14 -46 c7 -25 25 -79 39 -120 14 -41 23
-76 22 -78 -2 -2 -35 20 -73 49 -38 28 -83 62 -100 75 l-30 23 -102 -75 c-56
-41 -104 -75 -106 -75 -3 0 13 53 35 117 21 64 39 120 39 125 0 4 -46 42 -102
85 l-103 78 129 5 129 5 34 100 c18 55 36 107 39 115 4 9 22 -32 44 -100 l37
-115 133 -5z m-4393 -1142 l126 -3 -101 -77 -101 -78 40 -117 c21 -64 37 -118
35 -121 -2 -2 -47 28 -100 67 -53 39 -99 71 -102 71 -6 0 -101 -67 -181 -128
l-32 -24 39 118 c22 65 40 123 40 130 0 6 -46 45 -101 85 l-101 74 128 5 128
5 32 100 c18 55 36 109 39 120 5 14 18 -15 46 -102 l40 -122 126 -3z m3126
107 l34 -110 127 -5 126 -5 -91 -70 c-50 -38 -96 -73 -101 -76 -4 -3 9 -60 31
-127 21 -67 36 -122 33 -122 -3 0 -47 32 -98 70 -52 39 -98 70 -103 70 -5 0
-55 -34 -110 -75 -56 -41 -101 -74 -101 -72 0 2 18 57 40 122 22 65 40 122 40
125 0 3 -45 39 -101 80 l-100 75 125 3 125 3 38 118 c21 66 41 116 45 113 3
-4 22 -56 41 -117z m-1648 -525 l38 -119 130 -3 130 -3 -99 -74 c-54 -41 -101
-76 -103 -78 -2 -1 12 -56 32 -122 20 -65 37 -121 37 -125 0 -3 -46 28 -101
69 -90 67 -104 74 -120 63 -10 -7 -57 -41 -104 -76 -47 -34 -85 -59 -85 -54 0
4 18 60 39 125 l39 116 -104 78 -105 78 129 3 128 3 39 119 c22 66 40 120 41
120 1 0 18 -54 39 -120z"/>
<path d="M0 3040 l0 -3040 5990 0 5990 0 0 3040 0 3040 -795 0 -795 0 0 -198
c0 -935 -332 -1890 -918 -2641 -233 -298 -530 -589 -841 -825 -965 -731 -2241
-1028 -3436 -800 -1048 201 -1961 752 -2632 1592 -488 609 -809 1365 -912
2147 -26 199 -44 517 -36 633 l7 92 -811 0 -811 0 0 -3040z"/>
</g>
</svg>
