<?xml version="1.0" standalone="no"?>
<!DOCTYPE svg PUBLIC "-//W3C//DTD SVG 20010904//EN"
 "http://www.w3.org/TR/2001/REC-SVG-20010904/DTD/svg10.dtd">
<svg version="1.0" xmlns="http://www.w3.org/2000/svg"
 width="1333.000000pt" height="577.000000pt" viewBox="0 0 1333.000000 577.000000"
 preserveAspectRatio="xMidYMid meet">
<metadata>
Created by potrace 1.16, written by Peter Selinger 2001-2019
</metadata>
<g transform="translate(0.000000,577.000000) scale(0.100000,-0.100000)"
fill="#000000" stroke="none">
<path d="M6570 5764 c-14 -2 -56 -9 -95 -15 -38 -6 -108 -25 -155 -41 -377
-132 -657 -466 -720 -859 -19 -121 -8 -343 23 -460 45 -173 132 -328 257 -462
277 -297 682 -415 1079 -316 544 136 902 689 805 1244 -41 239 -151 446 -326
611 -201 191 -439 291 -713 299 -71 2 -141 2 -155 -1z m181 -174 c47 0 49 -8
9 -35 -17 -11 -28 -26 -25 -33 3 -8 8 -25 12 -40 l6 -26 -34 22 -35 21 -33
-22 -34 -21 6 26 c4 14 9 32 12 40 3 7 -8 22 -25 33 -40 27 -38 35 9 35 37 0
40 3 52 38 l13 37 14 -37 c13 -35 18 -38 53 -38z m-436 -120 l40 -1 -32 -27
c-24 -21 -29 -31 -23 -47 5 -11 9 -28 9 -38 1 -17 -1 -17 -28 2 -16 12 -32 21
-36 21 -4 0 -20 -9 -36 -21 -31 -21 -34 -16 -19 31 6 21 2 30 -24 52 l-31 27
43 1 c23 0 42 4 42 9 0 5 5 22 11 38 l12 28 16 -37 c15 -35 19 -38 56 -38z
m879 0 l41 -1 -33 -27 c-30 -25 -32 -30 -23 -55 17 -44 13 -50 -19 -27 -31 22
-59 21 -80 -5 -22 -27 -29 -16 -15 24 13 39 13 40 -18 65 l-32 25 43 1 c23 0
42 4 42 9 0 5 5 22 11 38 l12 28 15 -37 c14 -35 18 -38 56 -38z m-318 -206
c37 -8 94 -29 128 -46 76 -37 166 -104 166 -122 0 -7 -9 -35 -21 -60 l-21 -47
-46 44 c-102 94 -202 132 -347 131 -151 -2 -260 -48 -358 -153 -39 -42 -107
-155 -107 -178 0 -4 168 -7 372 -5 205 1 383 0 395 -3 l21 -5 -21 -50 -21 -50
-388 0 -388 0 0 -50 0 -50 365 2 c201 2 365 0 365 -4 0 -3 -9 -27 -20 -52
l-19 -46 -335 0 -335 0 21 -49 c48 -116 178 -232 304 -271 90 -28 223 -27 306
1 67 22 145 69 197 117 18 18 35 32 37 32 2 0 4 -33 4 -74 l0 -74 -62 -40
c-203 -127 -442 -131 -646 -10 -111 66 -215 193 -258 316 l-19 52 -83 0 c-63
0 -83 3 -79 13 3 6 13 31 22 54 l17 43 54 -6 54 -7 0 52 0 51 -75 0 c-41 0
-75 2 -75 4 0 17 41 94 52 99 8 3 38 4 66 4 l51 -2 21 56 c103 283 412 452
706 383z m-882 -114 l41 -1 -34 -29 c-31 -27 -33 -30 -22 -61 14 -42 9 -46
-27 -19 l-30 23 -30 -22 c-41 -28 -43 -27 -28 17 13 36 13 38 -18 64 l-31 27
43 1 c23 0 42 4 42 9 0 5 5 22 11 38 l12 28 15 -37 c14 -35 18 -38 56 -38z
m1471 30 c6 -27 10 -30 48 -30 l42 -1 -31 -27 c-25 -22 -29 -32 -23 -52 14
-47 11 -54 -13 -36 -39 28 -47 29 -74 7 -33 -26 -40 -21 -25 20 10 30 9 34
-21 60 l-33 28 43 1 c23 0 42 4 42 9 0 22 21 62 29 56 5 -3 12 -19 16 -35z
m168 -470 l42 -1 -34 -28 c-33 -27 -34 -30 -21 -60 16 -40 10 -47 -23 -21 -31
25 -32 25 -68 -1 -27 -19 -29 -19 -28 -2 0 10 4 27 8 38 7 16 1 26 -23 47
l-31 27 41 1 c39 0 41 2 54 43 l13 42 14 -42 c14 -41 16 -43 56 -43z m-1808
30 c6 -27 10 -30 48 -30 l42 -1 -33 -28 c-29 -25 -32 -32 -23 -49 6 -12 11
-28 11 -37 0 -14 -4 -14 -29 4 -16 12 -32 21 -36 21 -4 0 -20 -9 -36 -21 -31
-22 -35 -16 -19 27 10 24 7 30 -22 55 l-33 28 43 1 c23 0 42 4 42 9 0 22 21
62 29 56 5 -3 12 -19 16 -35z m169 -470 l41 -1 -35 -28 c-32 -27 -33 -31 -22
-55 19 -42 14 -49 -18 -26 -31 22 -59 21 -80 -5 -22 -27 -29 -16 -16 23 13 36
13 38 -18 64 l-31 27 43 1 c23 0 42 4 42 9 0 5 5 22 11 38 l12 28 15 -37 c14
-35 18 -38 56 -38z m1471 30 c6 -27 10 -30 48 -30 l42 -1 -31 -27 c-24 -21
-30 -31 -23 -47 4 -11 8 -28 8 -38 1 -17 -1 -17 -28 2 -16 12 -32 21 -36 21
-4 0 -20 -9 -36 -21 -25 -18 -29 -18 -29 -4 0 9 5 26 11 37 10 19 7 25 -22 49
l-34 28 43 1 c23 0 42 4 42 9 0 22 21 62 29 56 5 -3 12 -19 16 -35z m-1150
-350 l40 -1 -33 -28 c-29 -25 -32 -32 -23 -49 6 -12 11 -28 11 -37 0 -14 -5
-14 -35 5 l-35 22 -26 -21 c-33 -26 -40 -21 -25 20 10 30 9 34 -21 60 l-33 28
43 1 c23 0 42 4 42 9 0 5 5 22 11 38 l12 28 16 -37 c15 -35 19 -38 56 -38z
m879 0 l41 -1 -33 -28 c-29 -25 -32 -31 -22 -55 16 -44 12 -49 -25 -26 l-35
22 -29 -21 c-40 -29 -44 -27 -26 16 15 36 15 36 -17 64 l-33 28 43 1 c23 0 42
4 42 9 0 5 5 22 11 38 l12 28 15 -37 c14 -35 18 -38 56 -38z m-484 -107 c0 -8
16 -13 43 -13 l42 -1 -33 -27 c-30 -25 -32 -30 -23 -55 17 -44 13 -50 -18 -28
-16 12 -32 21 -36 21 -4 0 -20 -9 -36 -21 -25 -18 -29 -18 -29 -4 0 9 5 25 11
37 9 17 6 24 -23 49 l-33 28 41 1 c39 0 41 2 54 43 l13 42 13 -30 c7 -16 13
-36 14 -42z"/>
<path d="M5040 3880 l0 -850 1650 0 1650 0 0 850 0 850 -225 0 -225 0 0 -97
c0 -319 -166 -666 -421 -879 -392 -327 -912 -382 -1357 -143 -375 201 -632
618 -632 1023 l0 96 -220 0 -220 0 0 -850z"/>
<path d="M5943 2180 c-162 -34 -255 -185 -210 -341 21 -69 65 -123 131 -156
42 -22 68 -27 146 -31 82 -3 104 -1 160 21 l65 24 3 56 c2 32 1 57 -1 57 -2 0
-32 -11 -67 -25 -72 -28 -161 -33 -213 -11 -18 7 -47 30 -66 51 -32 36 -33 41
-29 103 4 59 7 67 40 98 74 67 170 70 311 9 15 -6 17 -1 17 53 l0 59 -43 17
c-52 20 -186 29 -244 16z"/>
<path d="M0 1915 l0 -265 195 0 195 0 0 50 0 50 -130 0 -130 0 0 65 0 65 120
0 120 0 0 45 0 45 -120 0 -120 0 0 60 0 60 128 0 127 0 1 45 1 45 -193 0 -194
0 0 -265z"/>
<path d="M590 2013 c0 -93 5 -184 10 -204 16 -56 51 -102 100 -129 55 -30 193
-40 267 -19 60 16 127 80 142 134 6 22 11 118 11 213 l0 172 -65 0 -65 0 0
-155 c0 -177 -9 -212 -62 -245 -51 -32 -129 -24 -171 19 l-32 31 -3 175 -3
175 -65 0 -64 0 0 -167z"/>
<path d="M1340 1916 l0 -266 65 0 65 0 0 110 0 110 33 0 c45 0 67 -25 116
-132 l40 -88 71 0 c38 0 70 2 70 5 0 19 -101 213 -118 229 l-22 19 22 11 c12
6 33 27 46 46 41 61 20 141 -52 194 -24 19 -44 21 -182 24 l-154 3 0 -265z
m233 163 c29 -16 37 -28 37 -61 0 -34 -41 -58 -100 -58 l-40 0 0 65 0 65 41 0
c22 0 50 -5 62 -11z"/>
<path d="M2101 2159 c-141 -56 -209 -226 -143 -355 27 -52 87 -108 142 -133
67 -31 207 -29 275 3 89 41 165 153 165 241 0 83 -73 195 -154 237 -61 32
-211 36 -285 7z m229 -108 c45 -32 70 -80 70 -133 0 -61 -20 -100 -67 -133
-51 -34 -144 -36 -193 -2 -86 57 -97 182 -22 250 52 48 158 56 212 18z"/>
<path d="M2750 1915 l0 -265 65 0 65 0 0 110 0 110 83 0 c94 0 133 17 167 72
26 44 27 122 0 165 -36 59 -80 73 -240 73 l-140 0 0 -265z m248 149 c28 -19
29 -57 2 -84 -15 -15 -33 -20 -75 -20 l-55 0 0 60 0 60 53 0 c31 0 61 -6 75
-16z"/>
<path d="M3350 1915 l0 -265 195 0 195 0 0 50 0 49 -127 3 -128 3 0 60 0 60
123 3 122 3 0 44 0 44 -122 3 -123 3 0 55 0 55 128 3 127 3 0 44 0 45 -195 0
-195 0 0 -265z"/>
<path d="M3998 1915 l-106 -266 70 3 71 3 20 53 20 52 117 0 118 0 22 -55 22
-55 70 0 c62 0 69 2 64 18 -4 10 -55 128 -115 263 l-109 244 -79 3 -79 3 -106
-266z m226 46 c20 -47 36 -90 36 -98 0 -10 -19 -13 -75 -13 -41 0 -75 3 -75 8
0 11 72 194 75 190 1 -2 19 -41 39 -87z"/>
<path d="M4660 1915 l0 -265 65 0 65 0 0 165 c0 91 3 165 8 164 6 0 138 -150
241 -275 l44 -54 59 0 58 0 0 265 0 265 -65 0 -65 0 0 -156 c0 -86 -4 -154 -8
-152 -9 3 -116 123 -215 240 l-58 68 -64 0 -65 0 0 -265z"/>
<path d="M6450 1915 l0 -265 195 0 195 0 0 50 0 50 -130 0 -130 0 0 65 0 65
120 0 120 0 0 45 0 45 -120 0 -120 0 0 60 0 60 125 0 125 0 0 45 0 45 -190 0
-190 0 0 -265z"/>
<path d="M7050 1915 l0 -265 65 0 65 0 2 165 3 166 140 -165 140 -165 58 -1
57 0 0 265 0 265 -65 0 -64 0 -3 -157 -3 -157 -138 157 -138 157 -60 0 -59 0
0 -265z"/>
<path d="M7770 2135 l0 -44 93 -3 92 -3 3 -217 2 -218 65 0 65 0 0 220 0 220
95 0 95 0 0 45 0 45 -255 0 -255 0 0 -45z"/>
<path d="M8470 1915 l0 -265 65 0 65 0 0 110 0 110 28 0 c40 0 74 -40 118
-137 l37 -83 68 0 c40 0 69 4 69 10 0 21 -88 198 -108 218 l-21 21 40 39 c35
36 39 45 39 89 0 60 -28 107 -80 134 -29 16 -58 19 -177 19 l-143 0 0 -265z
m234 163 c47 -21 47 -85 1 -106 -14 -7 -44 -12 -65 -12 l-40 0 0 65 0 65 40 0
c21 0 50 -5 64 -12z"/>
<path d="M9243 2163 c-3 -10 -49 -124 -101 -253 -52 -129 -97 -241 -99 -247
-4 -10 13 -13 65 -13 l69 0 19 53 19 52 120 3 120 3 20 -53 21 -53 72 -3 71
-3 -30 73 c-17 40 -62 142 -100 226 -38 84 -77 170 -85 192 l-16 40 -79 0
c-67 0 -81 -3 -86 -17z m131 -211 c20 -48 36 -91 36 -95 0 -4 -34 -7 -75 -7
-52 0 -75 4 -75 12 0 18 64 178 71 178 3 0 23 -40 43 -88z"/>
<path d="M9810 1915 l0 -265 195 0 195 0 0 50 0 50 -130 0 -130 0 0 215 0 215
-65 0 -65 0 0 -265z"/>
<path d="M10710 1914 l0 -266 168 4 c195 4 221 13 260 88 38 74 11 161 -58
190 l-30 12 30 35 c54 61 33 149 -43 184 -35 15 -66 19 -184 19 l-143 0 0
-266z m281 -54 c13 -7 19 -21 19 -45 0 -48 -28 -65 -107 -65 l-63 0 0 60 0 60
66 0 c36 0 74 -5 85 -10z"/>
<path d="M11501 2158 c-5 -13 -52 -130 -105 -261 -53 -131 -96 -240 -96 -243
0 -2 30 -4 68 -4 l67 0 20 53 21 52 117 3 118 3 24 -56 25 -55 70 0 70 0 -25
58 c-14 31 -67 150 -118 264 l-92 208 -78 0 c-71 0 -78 -2 -86 -22z m134 -213
c19 -49 33 -90 31 -92 -2 -2 -37 -3 -78 -1 l-75 3 36 97 c20 53 40 93 44 89 4
-4 23 -47 42 -96z"/>
<path d="M12070 1915 l0 -265 65 0 65 0 2 166 3 166 85 -98 c212 -247 198
-234 257 -234 l53 0 0 265 0 265 -65 0 -64 0 -3 -155 -3 -156 -85 98 c-47 53
-107 123 -135 154 l-50 57 -62 1 -63 1 0 -265z"/>
<path d="M12830 1915 l0 -266 63 3 62 3 5 118 5 118 100 -120 100 -121 84 0
83 0 -38 48 c-21 26 -74 89 -118 140 l-79 93 81 119 c45 65 82 122 82 125 0 3
-32 5 -71 3 l-72 -3 -76 -112 -76 -111 -3 114 -3 114 -64 0 -65 0 0 -265z"/>
<path d="M4760 1130 l0 -30 1925 0 1925 0 0 30 0 30 -1925 0 -1925 0 0 -30z"/>
<path d="M5040 277 l0 -267 35 0 35 0 0 116 0 116 38 -7 c47 -8 80 -40 149
-142 l55 -83 45 0 c33 0 42 3 37 12 -40 65 -127 188 -148 210 -27 27 -27 27
-6 38 56 30 78 135 41 196 -27 45 -76 64 -186 71 l-95 6 0 -266z m190 178 c51
-26 53 -100 4 -132 -15 -9 -47 -17 -73 -17 l-46 -1 -3 83 -3 82 46 0 c25 0 59
-7 75 -15z"/>
<path d="M5741 523 c-25 -9 -66 -37 -91 -62 -133 -133 -94 -349 77 -432 60
-29 186 -31 246 -5 93 41 167 149 167 245 0 100 -59 199 -144 244 -55 28 -192
34 -255 10z m213 -76 c22 -12 53 -39 70 -60 58 -72 46 -198 -26 -264 -74 -70
-211 -70 -287 0 -76 70 -80 208 -8 286 57 61 178 80 251 38z"/>
<path d="M6369 517 c-39 -26 -63 -85 -54 -133 8 -44 39 -81 104 -121 119 -75
145 -120 96 -168 -39 -40 -123 -28 -169 24 -29 32 -37 26 -34 -26 3 -42 7 -49
38 -67 50 -29 157 -29 197 0 69 50 80 152 23 217 -15 18 -58 50 -95 71 -95 56
-116 95 -75 136 30 30 105 27 153 -5 l37 -26 0 45 c0 40 -3 47 -30 61 -47 24
-150 20 -191 -8z"/>
<path d="M6758 513 c11 -16 54 -71 96 -123 l76 -94 0 -143 0 -143 40 0 40 0 0
138 0 137 76 95 c42 52 85 107 96 123 l19 27 -45 0 c-44 0 -46 -2 -107 -77
-34 -43 -66 -82 -69 -86 -4 -5 -40 32 -80 82 -72 90 -73 91 -117 91 l-44 0 19
-27z"/>
<path d="M7402 523 c-41 -20 -65 -65 -65 -121 0 -57 22 -86 116 -148 43 -28
84 -60 92 -70 23 -31 18 -70 -11 -93 -45 -35 -114 -24 -166 27 l-28 26 0 -51
c0 -48 2 -52 34 -67 121 -57 239 -10 252 101 10 80 -21 126 -131 190 -93 54
-115 93 -75 133 30 30 106 27 154 -5 l37 -25 -3 47 c-2 39 -7 50 -28 60 -36
18 -138 16 -178 -4z"/>
<path d="M8880 275 l0 -265 40 0 40 0 0 206 0 207 37 -49 c60 -79 125 -159
132 -161 3 -1 42 44 86 100 l80 102 3 -202 2 -203 40 0 40 0 0 265 0 265 -39
0 c-29 0 -42 -6 -54 -22 -8 -13 -23 -32 -34 -43 -10 -11 -34 -40 -53 -65 -19
-25 -43 -55 -53 -67 l-19 -21 -66 81 c-102 129 -112 137 -149 137 l-33 0 0
-265z"/>
<path d="M3890 270 l0 -260 155 0 155 0 0 30 0 29 -117 3 -118 3 0 80 0 80
108 3 107 3 0 32 0 32 -107 0 -108 0 0 80 0 80 108 3 107 3 0 29 0 30 -145 0
-145 0 0 -260z"/>
<path d="M4370 345 c0 -202 7 -234 58 -288 30 -31 105 -57 167 -57 98 0 187
51 214 123 7 16 11 108 11 218 l0 189 -35 0 -35 0 0 -170 c0 -207 -9 -238 -77
-271 -54 -26 -130 -23 -171 8 -54 39 -62 71 -62 261 l0 172 -35 0 -35 0 0
-185z"/>
<path d="M7770 500 l0 -29 93 -3 92 -3 3 -227 2 -228 35 0 35 0 2 228 3 227
88 3 87 3 0 29 0 30 -220 0 -220 0 0 -30z"/>
<path d="M8390 270 l0 -260 155 0 155 0 0 30 0 30 -115 0 -115 0 0 85 0 85
105 0 105 0 0 30 0 29 -102 3 -103 3 -3 83 -3 82 111 0 110 0 0 30 0 30 -150
0 -150 0 0 -260z"/>
</g>
</svg>
